<svg xmlns="http://www.w3.org/2000/svg" width="24" height="24" viewbox="0 0 24px 24px" fill="none"><g clip-path="url(#a)"><path fill="#fff" d="M20.119 3.881A11.4 11.4 0 0 0 12 .516 11.399 11.399 0 0 0 3.881 3.88 11.427 11.427 0 0 0 .516 12a11.4 11.4 0 0 0 3.365 8.119A11.427 11.427 0 0 0 12 23.484a11.4 11.4 0 0 0 8.119-3.365A11.427 11.427 0 0 0 23.484 12c0-3.066-1.195-5.953-3.365-8.119Zm2.325 7.603H17.99c-.043-1.771-.291-3.478-.727-4.992.849-.436 1.64-.984 2.367-1.631a10.429 10.429 0 0 1 2.813 6.623Zm-9.928 1.032h4.448c-.037 1.63-.262 3.192-.651 4.589-1.2-.483-2.48-.764-3.797-.825v-3.764Zm6.375-8.372c-.6.53-1.257.98-1.95 1.354-.178-.496-.38-.965-.605-1.406-.445-.881-.952-1.603-1.51-2.156a10.41 10.41 0 0 1 4.065 2.208Zm-6.375-2.438c1.073.24 2.086 1.228 2.901 2.84.22.437.417.9.59 1.393a10.52 10.52 0 0 1-3.491.783V1.706Zm3.801 5.222c.385 1.388.605 2.94.642 4.561h-4.443V7.758a11.6 11.6 0 0 0 3.801-.83Zm-4.833 4.556H7.036c.037-1.621.258-3.173.642-4.56 1.2.487 2.484.768 3.802.824v3.736h.004Zm.005-9.778v5.016a10.493 10.493 0 0 1-3.492-.783c.173-.492.37-.956.59-1.392.816-1.613 1.829-2.602 2.902-2.84Zm-2.31.23c-.559.553-1.065 1.28-1.51 2.156-.22.44-.422.91-.605 1.406a10.6 10.6 0 0 1-1.95-1.354 10.41 10.41 0 0 1 4.064-2.208ZM4.372 4.86c.727.647 1.52 1.19 2.368 1.631-.436 1.519-.69 3.22-.727 4.992H1.561a10.43 10.43 0 0 1 2.812-6.623Zm-2.812 7.655h4.453c.042 1.786.295 3.496.736 5.02-.844.436-1.636.975-2.358 1.622a10.413 10.413 0 0 1-2.831-6.642Zm3.572 7.359c.6-.525 1.251-.975 1.94-1.345.179.482.375.947.596 1.378.445.881.951 1.603 1.51 2.16a10.462 10.462 0 0 1-4.046-2.193Zm6.356 2.419c-1.073-.24-2.086-1.228-2.902-2.84a12.043 12.043 0 0 1-.58-1.365 10.348 10.348 0 0 1 3.482-.778v4.983Zm-3.797-5.19c-.389-1.396-.614-2.957-.651-4.588h4.448v3.764a11.358 11.358 0 0 0-3.797.825Zm4.828 5.19V17.31c1.21.06 2.386.323 3.483.778-.173.483-.366.938-.581 1.364-.816 1.613-1.828 2.602-2.902 2.84Zm2.311-.23c.558-.553 1.064-1.28 1.51-2.16.22-.432.417-.896.595-1.379.689.37 1.34.82 1.94 1.345a10.342 10.342 0 0 1-4.045 2.194Zm4.79-2.906a11.47 11.47 0 0 0-2.357-1.622c.44-1.524.694-3.24.736-5.02h4.453a10.462 10.462 0 0 1-2.831 6.642Z"/></g><defs><clipPath id="a"><path fill="#fff" d="M0 0h24v24H0z"/></clipPath></defs></svg>